ffmpeg started on 2025-05-12 at 14:12:20
Report written to "D:\Convert\FFMetrics\reports\ssim_report-6.txt"
Log level: 32
Command line:
ffmpeg -hide_banner -nostdin -i "G:\\\xc0\xed\xe8\xec\xe5\\\xce\xed\xe3\xee\xe8\xed\xe3\xe8\\!_35_\xcb\xe5\xf2\xee_2024\\DreamCast\\\xc2\xe8\xf2\xf3\xe1\xe5\xf0 - \xdf \xf1\xf2\xe0\xeb\xe0 \xef\xee\xef\xf3\xeb\xff\xf0\xed\xee\xe9 \xef\xee\xf1\xeb\xe5 \xf2\xee\xe3\xee, \xea\xe0\xea \xe7\xe0\xe1\xfb\xeb\xe0 \xe2\xfb\xea\xeb\xfe\xf7\xe8\xf2\xfc \xf1\xf2\xf0\xe8\xec\\[DC] Vden - 05_Telegram_HEVC.mkv" -i "G:\\\xc0\xed\xe8\xec\xe5\\\xce\xed\xe3\xee\xe8\xed\xe3\xe8\\!_35_\xcb\xe5\xf2\xee_2024\\DreamCast\\\xc2\xe8\xf2\xf3\xe1\xe5\xf0 - \xdf \xf1\xf2\xe0\xeb\xe0 \xef\xee\xef\xf3\xeb\xff\xf0\xed\xee\xe9 \xef\xee\xf1\xeb\xe5 \xf2\xee\xe3\xee, \xea\xe0\xea \xe7\xe0\xe1\xfb\xeb\xe0 \xe2\xfb\xea\xeb\xfe\xf7\xe8\xf2\xfc \xf1\xf2\xf0\xe8\xec\\[DC] Vden - 05_Telegram.mp4" -lavfi "[0:v]settb=AVTB,setpts=PTS-STARTPTS,format=pix_fmts=yuv420p10,fps=24000/1001,scale=1920:1080:flags=bicubic[main];[1:v]settb=AVTB,setpts=PTS-STARTPTS,format=pix_fmts=yuv420p,fps=24000/1001,scale=1920:1080:flags=bicubic[ref];[main][ref]ssim=eof_action=endall:stats_file='D\\:/Convert/FFMetrics/logs/ssim_logfile-6.txt'" -f null -
Input #0, matroska,webm, from 'G:\Аниме\Онгоинги\!_35_Лето_2024\DreamCast\Витубер - Я стала популярной после того, как забыла выключить стрим\[DC] Vden - 05_Telegram_HEVC.mkv':
  Metadata:
    COMPATIBLE_BRANDS: isomiso2avc1mp41
    MAJOR_BRAND     : isom
    MINOR_VERSION   : 512
    ENCODER         : Lavf61.7.100
  Duration: 00:23:46.59, start: -0.021000, bitrate: 1678 kb/s
  Stream #0:0: Video: hevc (Main 10), yuv420p10le(tv, bt709, progressive), 1920x1080 [SAR 1:1 DAR 16:9], 23.98 fps, 23.98 tbr, 1k tbn (default)
      Metadata:
        HANDLER_NAME    : VideoHandler
        VENDOR_ID       : [0][0][0][0]
        ENCODER         : Lavc61.19.100 libx265
        BPS             : 1481451
        DURATION        : 00:23:46.591708333
        NUMBER_OF_FRAMES: 34204
        NUMBER_OF_BYTES : 264178167
        _STATISTICS_WRITING_APP: mkvpropedit v66.0.0 ('Josie') 64-bit
        _STATISTICS_WRITING_DATE_UTC: 2025-05-06 17:44:33
        _STATISTICS_TAGS: BPS DURATION NUMBER_OF_FRAMES NUMBER_OF_BYTES
  Stream #0:1: Audio: aac (LC), 48000 Hz, stereo, fltp (default)
      Metadata:
        HANDLER_NAME    : SoundHandler
        VENDOR_ID       : [0][0][0][0]
        ENCODER         : Lavc61.19.100 aac
        BPS             : 193144
        DURATION        : 00:23:46.346000000
        NUMBER_OF_FRAMES: 66861
        NUMBER_OF_BYTES : 34436344
        _STATISTICS_WRITING_APP: mkvpropedit v66.0.0 ('Josie') 64-bit
        _STATISTICS_WRITING_DATE_UTC: 2025-05-06 17:44:33
        _STATISTICS_TAGS: BPS DURATION NUMBER_OF_FRAMES NUMBER_OF_BYTES
Input #1, mov,mp4,m4a,3gp,3g2,mj2, from 'G:\Аниме\Онгоинги\!_35_Лето_2024\DreamCast\Витубер - Я стала популярной после того, как забыла выключить стрим\[DC] Vden - 05_Telegram.mp4':
  Metadata:
    major_brand     : isom
    minor_version   : 512
    compatible_brands: isomiso2avc1mp41
    encoder         : Lavf61.1.100
  Duration: 00:23:46.59, start: 0.000000, bitrate: 3865 kb/s
  Stream #1:0[0x1](und): Video: h264 (High) (avc1 / 0x31637661), yuv420p(tv, bt709, progressive), 1920x1080 [SAR 1:1 DAR 16:9], 3718 kb/s, 23.98 fps, 23.98 tbr, 24k tbn (default)
      Metadata:
        handler_name    : VideoHandler
        vendor_id       : [0][0][0][0]
        encoder         : Lavc61.3.100 h264_qsv
  Stream #1:1[0x2](und): Audio: aac (HE-AACv2) (mp4a / 0x6134706D), 48000 Hz, stereo, fltp, 144 kb/s (default)
      Metadata:
        handler_name    : SoundHandler
        vendor_id       : [0][0][0][0]
Stream mapping:
  Stream #0:0 (hevc) -> settb:default
  Stream #1:0 (h264) -> settb:default
  ssim:default -> Stream #0:0 (wrapped_avframe)
  Stream #0:1 -> #0:1 (aac (native) -> pcm_s16le (native))
Output #0, null, to 'pipe:':
  Metadata:
    COMPATIBLE_BRANDS: isomiso2avc1mp41
    MAJOR_BRAND     : isom
    MINOR_VERSION   : 512
    encoder         : Lavf61.7.100
  Stream #0:0: Video: wrapped_avframe, yuv420p10le(tv, bt709, progressive), 1920x1080 [SAR 1:1 DAR 16:9], q=2-31, 200 kb/s, 23.98 fps, 23.98 tbn
      Metadata:
        encoder         : Lavc61.19.100 wrapped_avframe
  Stream #0:1: Audio: pcm_s16le, 48000 Hz, stereo, s16, 1536 kb/s (default)
      Metadata:
        HANDLER_NAME    : SoundHandler
        VENDOR_ID       : [0][0][0][0]
        _STATISTICS_TAGS: BPS DURATION NUMBER_OF_FRAMES NUMBER_OF_BYTES
        BPS             : 193144
        DURATION        : 00:23:46.346000000
        NUMBER_OF_FRAMES: 66861
        NUMBER_OF_BYTES : 34436344
        _STATISTICS_WRITING_APP: mkvpropedit v66.0.0 ('Josie') 64-bit
        _STATISTICS_WRITING_DATE_UTC: 2025-05-06 17:44:33
        encoder         : Lavc61.19.100 pcm_s16le
frame=  163 fps=0.0 q=-0.0 size=N/A time=00:00:06.79 bitrate=N/A speed=13.2x    frame=  390 fps=381 q=-0.0 size=N/A time=00:00:16.26 bitrate=N/A speed=15.9x    frame=  643 fps=416 q=-0.0 size=N/A time=00:00:26.81 bitrate=N/A speed=17.4x    frame=  884 fps=431 q=-0.0 size=N/A time=00:00:36.87 bitrate=N/A speed=  18x    frame= 1106 fps=429 q=-0.0 size=N/A time=00:00:46.12 bitrate=N/A speed=17.9x    frame= 1346 fps=437 q=-0.0 size=N/A time=00:00:56.13 bitrate=N/A speed=18.2x    frame= 1587 fps=440 q=-0.0 size=N/A time=00:01:06.19 bitrate=N/A speed=18.4x    frame= 1817 fps=442 q=-0.0 size=N/A time=00:01:15.78 bitrate=N/A speed=18.4x    frame= 2008 fps=433 q=-0.0 size=N/A time=00:01:23.75 bitrate=N/A speed=18.1x    frame= 2210 fps=428 q=-0.0 size=N/A time=00:01:32.17 bitrate=N/A speed=17.9x    frame= 2420 fps=427 q=-0.0 size=N/A time=00:01:40.93 bitrate=N/A speed=17.8x    frame= 2605 fps=421 q=-0.0 size=N/A time=00:01:48.65 bitrate=N/A speed=17.6x    frame= 2815 fps=420 q=-0.0 size=N/A time=00:01:57.40 bitrate=N/A speed=17.5x    frame= 2992 fps=414 q=-0.0 size=N/A time=00:02:04.79 bitrate=N/A speed=17.3x    frame= 3170 fps=410 q=-0.0 size=N/A time=00:02:12.21 bitrate=N/A speed=17.1x    frame= 3336 fps=404 q=-0.0 size=N/A time=00:02:19.13 bitrate=N/A speed=16.9x    frame= 3493 fps=399 q=-0.0 size=N/A time=00:02:25.68 bitrate=N/A speed=16.6x    frame= 3651 fps=394 q=-0.0 size=N/A time=00:02:32.27 bitrate=N/A speed=16.4x    frame= 3843 fps=392 q=-0.0 size=N/A time=00:02:40.28 bitrate=N/A speed=16.4x    frame= 4101 fps=397 q=-0.0 size=N/A time=00:02:51.04 bitrate=N/A speed=16.6x    frame= 4322 fps=399 q=-0.0 size=N/A time=00:03:00.26 bitrate=N/A speed=16.6x    frame= 4564 fps=402 q=-0.0 size=N/A time=00:03:10.35 bitrate=N/A speed=16.8x    frame= 4764 fps=401 q=-0.0 size=N/A time=00:03:18.69 bitrate=N/A speed=16.7x    frame= 4915 fps=397 q=-0.0 size=N/A time=00:03:24.99 bitrate=N/A speed=16.6x    frame= 5181 fps=401 q=-0.0 size=N/A time=00:03:36.09 bitrate=N/A speed=16.7x    frame= 5373 fps=401 q=-0.0 size=N/A time=00:03:44.09 bitrate=N/A speed=16.7x    frame= 5616 fps=403 q=-0.0 size=N/A time=00:03:54.23 bitrate=N/A speed=16.8x    frame= 5834 fps=404 q=-0.0 size=N/A time=00:04:03.32 bitrate=N/A speed=16.8x    frame= 6089 fps=407 q=-0.0 size=N/A time=00:04:13.96 bitrate=N/A speed=  17x    frame= 6339 fps=410 q=-0.0 size=N/A time=00:04:24.38 bitrate=N/A speed=17.1x    frame= 6610 fps=413 q=-0.0 size=N/A time=00:04:35.69 bitrate=N/A speed=17.2x    frame= 6849 fps=415 q=-0.0 size=N/A time=00:04:45.66 bitrate=N/A speed=17.3x    frame= 7104 fps=417 q=-0.0 size=N/A time=00:04:56.29 bitrate=N/A speed=17.4x    frame= 7314 fps=417 q=-0.0 size=N/A time=00:05:05.05 bitrate=N/A speed=17.4x    frame= 7546 fps=418 q=-0.0 size=N/A time=00:05:14.73 bitrate=N/A speed=17.4x    frame= 7731 fps=416 q=-0.0 size=N/A time=00:05:22.44 bitrate=N/A speed=17.4x    frame= 7959 fps=417 q=-0.0 size=N/A time=00:05:31.95 bitrate=N/A speed=17.4x    frame= 8202 fps=418 q=-0.0 size=N/A time=00:05:42.09 bitrate=N/A speed=17.4x    frame= 8459 fps=420 q=-0.0 size=N/A time=00:05:52.81 bitrate=N/A speed=17.5x    frame= 8642 fps=419 q=-0.0 size=N/A time=00:06:00.44 bitrate=N/A speed=17.5x    frame= 8834 fps=418 q=-0.0 size=N/A time=00:06:08.45 bitrate=N/A speed=17.4x    frame= 9074 fps=419 q=-0.0 size=N/A time=00:06:18.46 bitrate=N/A speed=17.5x    frame= 9326 fps=420 q=-0.0 size=N/A time=00:06:28.97 bitrate=N/A speed=17.5x    frame= 9529 fps=420 q=-0.0 size=N/A time=00:06:37.43 bitrate=N/A speed=17.5x    frame= 9772 fps=421 q=-0.0 size=N/A time=00:06:47.57 bitrate=N/A speed=17.6x    frame=10051 fps=424 q=-0.0 size=N/A time=00:06:59.21 bitrate=N/A speed=17.7x    frame=10298 fps=425 q=-0.0 size=N/A time=00:07:09.51 bitrate=N/A speed=17.7x    frame=10512 fps=425 q=-0.0 size=N/A time=00:07:18.43 bitrate=N/A speed=17.7x    frame=10777 fps=426 q=-0.0 size=N/A time=00:07:29.49 bitrate=N/A speed=17.8x    frame=10995 fps=426 q=-0.0 size=N/A time=00:07:38.58 bitrate=N/A speed=17.8x    frame=11216 fps=426 q=-0.0 size=N/A time=00:07:47.80 bitrate=N/A speed=17.8x    frame=11455 fps=427 q=-0.0 size=N/A time=00:07:57.76 bitrate=N/A speed=17.8x    frame=11651 fps=426 q=-0.0 size=N/A time=00:08:05.94 bitrate=N/A speed=17.8x    frame=11809 fps=424 q=-0.0 size=N/A time=00:08:12.53 bitrate=N/A speed=17.7x    frame=12038 fps=424 q=-0.0 size=N/A time=00:08:22.08 bitrate=N/A speed=17.7x    frame=12256 fps=424 q=-0.0 size=N/A time=00:08:31.17 bitrate=N/A speed=17.7x    frame=12529 fps=426 q=-0.0 size=N/A time=00:08:42.56 bitrate=N/A speed=17.8x    frame=12795 fps=428 q=-0.0 size=N/A time=00:08:53.65 bitrate=N/A speed=17.8x    frame=12994 fps=427 q=-0.0 size=N/A time=00:09:01.95 bitrate=N/A speed=17.8x    frame=13172 fps=426 q=-0.0 size=N/A time=00:09:09.38 bitrate=N/A speed=17.7x    frame=13341 fps=424 q=-0.0 size=N/A time=00:09:16.43 bitrate=N/A speed=17.7x    frame=13546 fps=424 q=-0.0 size=N/A time=00:09:24.98 bitrate=N/A speed=17.7x    frame=13705 fps=422 q=-0.0 size=N/A time=00:09:31.61 bitrate=N/A speed=17.6x    frame=13940 fps=422 q=-0.0 size=N/A time=00:09:41.41 bitrate=N/A speed=17.6x    frame=14093 fps=420 q=-0.0 size=N/A time=00:09:47.79 bitrate=N/A speed=17.5x    frame=14326 fps=421 q=-0.0 size=N/A time=00:09:57.51 bitrate=N/A speed=17.6x    frame=14566 fps=422 q=-0.0 size=N/A time=00:10:07.52 bitrate=N/A speed=17.6x    frame=14820 fps=422 q=-0.0 size=N/A time=00:10:18.11 bitrate=N/A speed=17.6x    frame=15032 fps=422 q=-0.0 size=N/A time=00:10:26.95 bitrate=N/A speed=17.6x    frame=15278 fps=423 q=-0.0 size=N/A time=00:10:37.21 bitrate=N/A speed=17.6x    frame=15511 fps=424 q=-0.0 size=N/A time=00:10:46.93 bitrate=N/A speed=17.7x    frame=15675 fps=422 q=-0.0 size=N/A time=00:10:53.77 bitrate=N/A speed=17.6x    frame=15894 fps=422 q=-0.0 size=N/A time=00:11:02.91 bitrate=N/A speed=17.6x    frame=16048 fps=420 q=-0.0 size=N/A time=00:11:09.33 bitrate=N/A speed=17.5x    frame=16288 fps=421 q=-0.0 size=N/A time=00:11:19.34 bitrate=N/A speed=17.6x    frame=16541 fps=422 q=-0.0 size=N/A time=00:11:29.89 bitrate=N/A speed=17.6x    frame=16747 fps=422 q=-0.0 size=N/A time=00:11:38.48 bitrate=N/A speed=17.6x    frame=16955 fps=421 q=-0.0 size=N/A time=00:11:47.16 bitrate=N/A speed=17.6x    frame=17187 fps=422 q=-0.0 size=N/A time=00:11:56.84 bitrate=N/A speed=17.6x    frame=17437 fps=423 q=-0.0 size=N/A time=00:12:07.26 bitrate=N/A speed=17.6x    frame=17641 fps=422 q=-0.0 size=N/A time=00:12:15.77 bitrate=N/A speed=17.6x    frame=17899 fps=423 q=-0.0 size=N/A time=00:12:26.53 bitrate=N/A speed=17.7x    frame=18046 fps=422 q=-0.0 size=N/A time=00:12:32.66 bitrate=N/A speed=17.6x    frame=18249 fps=421 q=-0.0 size=N/A time=00:12:41.13 bitrate=N/A speed=17.6x    frame=18510 fps=422 q=-0.0 size=N/A time=00:12:52.02 bitrate=N/A speed=17.6x    frame=18769 fps=423 q=-0.0 size=N/A time=00:13:02.82 bitrate=N/A speed=17.6x    frame=19021 fps=424 q=-0.0 size=N/A time=00:13:13.33 bitrate=N/A speed=17.7x    frame=19236 fps=424 q=-0.0 size=N/A time=00:13:22.30 bitrate=N/A speed=17.7x    frame=19458 fps=424 q=-0.0 size=N/A time=00:13:31.56 bitrate=N/A speed=17.7x    frame=19685 fps=424 q=-0.0 size=N/A time=00:13:41.02 bitrate=N/A speed=17.7x    frame=19934 fps=425 q=-0.0 size=N/A time=00:13:51.41 bitrate=N/A speed=17.7x    frame=20142 fps=425 q=-0.0 size=N/A time=00:14:00.08 bitrate=N/A speed=17.7x    frame=20362 fps=424 q=-0.0 size=N/A time=00:14:09.26 bitrate=N/A speed=17.7x    frame=20595 fps=425 q=-0.0 size=N/A time=00:14:18.98 bitrate=N/A speed=17.7x    frame=20816 fps=425 q=-0.0 size=N/A time=00:14:28.20 bitrate=N/A speed=17.7x    frame=21015 fps=424 q=-0.0 size=N/A time=00:14:36.50 bitrate=N/A speed=17.7x    frame=21227 fps=424 q=-0.0 size=N/A time=00:14:45.34 bitrate=N/A speed=17.7x    frame=21403 fps=423 q=-0.0 size=N/A time=00:14:52.68 bitrate=N/A speed=17.7x    frame=21536 fps=422 q=-0.0 size=N/A time=00:14:58.23 bitrate=N/A speed=17.6x    frame=21746 fps=422 q=-0.0 size=N/A time=00:15:06.98 bitrate=N/A speed=17.6x    frame=21961 fps=422 q=-0.0 size=N/A time=00:15:15.95 bitrate=N/A speed=17.6x    frame=22220 fps=422 q=-0.0 size=N/A time=00:15:26.75 bitrate=N/A speed=17.6x    frame=22492 fps=423 q=-0.0 size=N/A time=00:15:38.10 bitrate=N/A speed=17.7x    frame=22757 fps=424 q=-0.0 size=N/A time=00:15:49.15 bitrate=N/A speed=17.7x    frame=23024 fps=425 q=-0.0 size=N/A time=00:16:00.29 bitrate=N/A speed=17.7x    frame=23271 fps=426 q=-0.0 size=N/A time=00:16:10.59 bitrate=N/A speed=17.8x    frame=23468 fps=425 q=-0.0 size=N/A time=00:16:18.81 bitrate=N/A speed=17.7x    frame=23676 fps=425 q=-0.0 size=N/A time=00:16:27.48 bitrate=N/A speed=17.7x    frame=23898 fps=425 q=-0.0 size=N/A time=00:16:36.74 bitrate=N/A speed=17.7x    frame=24096 fps=425 q=-0.0 size=N/A time=00:16:45.00 bitrate=N/A speed=17.7x    frame=24335 fps=425 q=-0.0 size=N/A time=00:16:54.97 bitrate=N/A speed=17.7x    frame=24597 fps=426 q=-0.0 size=N/A time=00:17:05.89 bitrate=N/A speed=17.8x    frame=24813 fps=426 q=-0.0 size=N/A time=00:17:14.90 bitrate=N/A speed=17.8x    frame=25032 fps=426 q=-0.0 size=N/A time=00:17:24.04 bitrate=N/A speed=17.8x    frame=25247 fps=426 q=-0.0 size=N/A time=00:17:33.01 bitrate=N/A speed=17.7x    frame=25467 fps=426 q=-0.0 size=N/A time=00:17:42.18 bitrate=N/A speed=17.8x    frame=25727 fps=426 q=-0.0 size=N/A time=00:17:53.03 bitrate=N/A speed=17.8x    frame=25967 fps=427 q=-0.0 size=N/A time=00:18:03.04 bitrate=N/A speed=17.8x    frame=26188 fps=427 q=-0.0 size=N/A time=00:18:12.25 bitrate=N/A speed=17.8x    frame=26411 fps=427 q=-0.0 size=N/A time=00:18:21.55 bitrate=N/A speed=17.8x    frame=26649 fps=427 q=-0.0 size=N/A time=00:18:31.48 bitrate=N/A speed=17.8x    frame=26908 fps=428 q=-0.0 size=N/A time=00:18:42.28 bitrate=N/A speed=17.8x    frame=27188 fps=429 q=-0.0 size=N/A time=00:18:53.96 bitrate=N/A speed=17.9x    frame=27439 fps=429 q=-0.0 size=N/A time=00:19:04.43 bitrate=N/A speed=17.9x    frame=27704 fps=430 q=-0.0 size=N/A time=00:19:15.48 bitrate=N/A speed=17.9x    frame=27888 fps=429 q=-0.0 size=N/A time=00:19:23.16 bitrate=N/A speed=17.9x    frame=28095 fps=429 q=-0.0 size=N/A time=00:19:31.79 bitrate=N/A speed=17.9x    frame=28285 fps=428 q=-0.0 size=N/A time=00:19:39.72 bitrate=N/A speed=17.9x    frame=28473 fps=428 q=-0.0 size=N/A time=00:19:47.56 bitrate=N/A speed=17.8x    frame=28705 fps=428 q=-0.0 size=N/A time=00:19:57.23 bitrate=N/A speed=17.9x    frame=28937 fps=428 q=-0.0 size=N/A time=00:20:06.91 bitrate=N/A speed=17.9x    frame=29211 fps=429 q=-0.0 size=N/A time=00:20:18.34 bitrate=N/A speed=17.9x    frame=29455 fps=429 q=-0.0 size=N/A time=00:20:28.51 bitrate=N/A speed=17.9x    frame=29707 fps=430 q=-0.0 size=N/A time=00:20:39.02 bitrate=N/A speed=17.9x    frame=29941 fps=430 q=-0.0 size=N/A time=00:20:48.78 bitrate=N/A speed=17.9x    frame=30182 fps=430 q=-0.0 size=N/A time=00:20:58.84 bitrate=N/A speed=17.9x    frame=30369 fps=430 q=-0.0 size=N/A time=00:21:06.64 bitrate=N/A speed=17.9x    frame=30543 fps=429 q=-0.0 size=N/A time=00:21:13.89 bitrate=N/A speed=17.9x    frame=30713 fps=428 q=-0.0 size=N/A time=00:21:20.98 bitrate=N/A speed=17.9x    frame=30939 fps=428 q=-0.0 size=N/A time=00:21:30.41 bitrate=N/A speed=17.9x    frame=31188 fps=429 q=-0.0 size=N/A time=00:21:40.79 bitrate=N/A speed=17.9x    frame=31404 fps=429 q=-0.0 size=N/A time=00:21:49.80 bitrate=N/A speed=17.9x    frame=31640 fps=429 q=-0.0 size=N/A time=00:21:59.65 bitrate=N/A speed=17.9x    frame=31884 fps=429 q=-0.0 size=N/A time=00:22:09.82 bitrate=N/A speed=17.9x    frame=32094 fps=429 q=-0.0 size=N/A time=00:22:18.58 bitrate=N/A speed=17.9x    frame=32345 fps=429 q=-0.0 size=N/A time=00:22:29.05 bitrate=N/A speed=17.9x    frame=32591 fps=430 q=-0.0 size=N/A time=00:22:39.31 bitrate=N/A speed=17.9x    frame=32834 fps=430 q=-0.0 size=N/A time=00:22:49.45 bitrate=N/A speed=17.9x    frame=33080 fps=430 q=-0.0 size=N/A time=00:22:59.71 bitrate=N/A speed=  18x    frame=33322 fps=431 q=-0.0 size=N/A time=00:23:09.80 bitrate=N/A speed=  18x    frame=33565 fps=431 q=-0.0 size=N/A time=00:23:19.94 bitrate=N/A speed=  18x    frame=33807 fps=431 q=-0.0 size=N/A time=00:23:30.03 bitrate=N/A speed=  18x    frame=34053 fps=431 q=-0.0 size=N/A time=00:23:40.29 bitrate=N/A speed=  18x    [Parsed_ssim_10 @ 000002d6aeba72c0] SSIM Y:0.993882 (22.134224) U:0.991473 (20.692264) V:0.991787 (20.854737) All:0.993132 (21.631463)
[out#0/null @ 000002d6ac224e00] video:14697KiB audio:267444KiB subtitle:0KiB other streams:0KiB global headers:0KiB muxing overhead: unknown
frame=34204 fps=432 q=-0.0 Lsize=N/A time=00:23:46.36 bitrate=N/A speed=  18x    
